<?xml version="1.0" standalone="no"?>
<!DOCTYPE svg PUBLIC "-//W3C//DTD SVG 20010904//EN"
 "http://www.w3.org/TR/2001/REC-SVG-20010904/DTD/svg10.dtd">
<svg version="1.0" xmlns="http://www.w3.org/2000/svg"
 width="225.000000pt" height="225.000000pt" viewBox="0 0 225.000000 225.000000"
 preserveAspectRatio="xMidYMid meet">
<metadata>
Created by potrace 1.14, written by Peter Selinger 2001-2017
</metadata>
<g transform="translate(0.000000,225.000000) scale(0.100000,-0.100000)"
fill="#000000" stroke="none">
<path d="M345 1335 c-14 -13 -25 -31 -25 -40 0 -10 -10 -15 -34 -15 -41 0 -82
-31 -89 -67 -6 -33 14 -87 38 -100 16 -9 16 -12 0 -42 -31 -61 13 -131 73
-117 20 5 23 4 12 -4 -8 -5 -10 -10 -4 -10 5 0 19 7 30 16 10 8 13 12 5 8 -9
-5 -12 -3 -7 4 13 22 22 12 40 -45 39 -124 104 -208 161 -208 46 0 40 25 -14
66 -38 29 -57 55 -89 122 -44 89 -49 107 -31 107 5 0 8 -4 5 -8 -2 -4 20 -5
51 -2 41 5 61 12 74 29 11 13 19 19 19 13 0 -6 -12 -20 -26 -31 -15 -12 -22
-21 -17 -21 5 0 19 10 31 23 22 24 31 87 12 87 -19 0 -10 29 13 40 21 11 21
10 3 -4 -23 -18 -14 -21 15 -5 11 5 17 14 14 20 -4 5 -1 8 5 7 7 -2 16 7 21
20 6 17 6 21 -3 16 -8 -5 -9 0 -5 16 10 38 -33 74 -90 75 -31 1 -48 6 -51 16
-18 59 -94 78 -137 34z m99 -54 c16 -17 16 -18 -7 -14 -14 3 -39 -3 -57 -12
-40 -21 -46 -15 -19 18 24 32 59 35 83 8z m94 -37 c32 -22 29 -61 -8 -82 -25
-14 -30 -23 -30 -53 0 -46 -19 -62 -72 -62 -23 0 -56 -8 -73 -18 -62 -38 -117
-12 -96 44 6 14 15 28 21 32 8 5 7 12 -3 23 -36 43 -19 92 33 92 28 0 29 -1
14 -27 -32 -63 -7 -133 48 -133 74 0 124 64 116 148 -6 58 7 67 50 36z m-90
-26 c22 -22 14 -68 -17 -99 -48 -48 -102 -30 -86 28 l8 28 6 -25 c4 -15 15
-26 27 -28 25 -4 57 30 52 55 -4 19 -9 20 -43 7 -18 -6 -17 -4 4 19 28 30 32
32 49 15z"/>
<path d="M1019 1298 c7 -10 11 -31 9 -47 -2 -17 -1 -28 4 -25 15 9 8 61 -9 75
-16 13 -17 12 -4 -3z"/>
<path d="M1190 1305 c0 -5 5 -17 10 -25 5 -8 10 -10 10 -5 0 6 -5 17 -10 25
-5 8 -10 11 -10 5z"/>
<path d="M1739 1293 c-13 -16 -12 -17 4 -4 9 7 17 15 17 17 0 8 -8 3 -21 -13z"/>
<path d="M934 1210 c0 -52 1 -74 3 -47 2 26 2 68 0 95 -2 26 -3 4 -3 -48z"/>
<path d="M1175 1269 c-4 -6 -5 -12 -2 -15 2 -3 7 2 10 11 7 17 1 20 -8 4z"/>
<path d="M1710 1250 c-6 -11 -8 -20 -6 -20 3 0 10 9 16 20 6 11 8 20 6 20 -3
0 -10 -9 -16 -20z"/>
<path d="M1836 1255 c-9 -26 -7 -32 5 -12 6 10 9 21 6 23 -2 3 -7 -2 -11 -11z"/>
<path d="M1880 1255 c0 -5 5 -17 10 -25 5 -8 10 -10 10 -5 0 6 -5 17 -10 25
-5 8 -10 11 -10 5z"/>
<path d="M1683 1155 c0 -27 2 -38 4 -22 2 15 2 37 0 50 -2 12 -4 0 -4 -28z"/>
<path d="M1240 1185 c0 -5 5 -17 10 -25 5 -8 10 -10 10 -5 0 6 -5 17 -10 25
-5 8 -10 11 -10 5z"/>
<path d="M840 1137 c0 -16 29 -63 51 -82 l24 -20 -21 25 c-12 14 -29 39 -37
55 -9 17 -16 26 -17 22z"/>
<path d="M1045 1120 c10 -11 20 -20 23 -20 3 0 -3 9 -13 20 -10 11 -20 20 -23
20 -3 0 3 -9 13 -20z"/>
<path d="M1260 1133 c0 -6 8 -17 18 -24 16 -13 16 -13 2 6 -8 11 -16 22 -17
24 -2 2 -3 0 -3 -6z"/>
<path d="M1446 1125 c-9 -26 -7 -32 5 -12 6 10 9 21 6 23 -2 3 -7 -2 -11 -11z"/>
<path d="M1930 1133 c0 -6 8 -17 18 -24 16 -13 16 -13 2 6 -8 11 -16 22 -17
24 -2 2 -3 0 -3 -6z"/>
<path d="M463 983 c9 -2 23 -2 30 0 6 3 -1 5 -18 5 -16 0 -22 -2 -12 -5z"/>
<path d="M260 917 l-45 -11 43 -6 c23 -4 56 -17 73 -29 18 -13 37 -20 47 -16
11 4 9 -2 -7 -19 -31 -33 -53 -33 -108 -1 -52 31 -57 15 -9 -29 27 -26 41 -32
74 -31 48 1 72 19 72 52 0 36 -28 83 -56 93 -29 11 -24 11 -84 -3z m130 -111
c0 -2 -8 -10 -17 -17 -16 -13 -17 -12 -4 4 13 16 21 21 21 13z"/>
</g>
</svg>
